<?xml version="1.0" encoding="UTF-8"?>
<svg width="64" height="64" viewBox="0 0 64 64" fill="none" xmlns="http://www.w3.org/2000/svg">
  <defs>
    <!-- Main gradient from navy blue to orange -->
    <linearGradient id="mainGradientIcon" x1="0%" y1="0%" x2="100%" y2="100%">
      <stop offset="0%" style="stop-color:#1e3a8a;stop-opacity:1" />
      <stop offset="100%" style="stop-color:#ea580c;stop-opacity:1" />
    </linearGradient>
    <!-- Circuit gradient -->
    <linearGradient id="circuitGradientIcon" x1="0%" y1="0%" x2="100%" y2="0%">
      <stop offset="0%" style="stop-color:#60a5fa;stop-opacity:1" />
      <stop offset="100%" style="stop-color:#34d399;stop-opacity:1" />
    </linearGradient>
  </defs>
  
  <!-- Background Circle -->
  <circle cx="32" cy="32" r="32" fill="url(#mainGradientIcon)"/>
  
  <!-- Bridge Structure -->
  <g transform="translate(8, 28)">
    <!-- Bridge Base -->
    <path d="M0 14 L48 14 L48 18 L0 18 Z" fill="white" opacity="0.9"/>
    <!-- Bridge Towers -->
    <rect x="14" y="4" width="4" height="14" fill="white" opacity="0.8"/>
    <rect x="30" y="4" width="4" height="14" fill="white" opacity="0.8"/>
    <!-- Bridge Cables -->
    <path d="M16 4 Q24 12 32 4" stroke="white" stroke-width="1.5" fill="none" opacity="0.7"/>
    <path d="M16 7 Q24 14 32 7" stroke="white" stroke-width="1.2" fill="none" opacity="0.6"/>
    <!-- Support Cables -->
    <path d="M16 4 L8 18 M16 4 L20 18 M32 4 L28 18 M32 4 L40 18" stroke="white" stroke-width="0.8" opacity="0.5"/>
  </g>
  
  <!-- Open Book -->
  <g transform="translate(18, 12)">
    <!-- Left page -->
    <path d="M0 3 C0 2 1 1 2 1 L12 1 C13 1 14 2 14 3 L14 20 C14 21 13 22 12 22 L2 22 C1 22 0 21 0 20 Z" 
          fill="white" opacity="0.9"/>
    <!-- Right page -->
    <path d="M14 3 C14 2 15 1 16 1 L26 1 C27 1 28 2 28 3 L28 20 C28 21 27 22 26 22 L16 22 C15 22 14 21 14 20 Z" 
          fill="white" opacity="0.7"/>
    <!-- Book spine/binding -->
    <path d="M14 1 L14 22" stroke="white" stroke-width="1" opacity="0.6"/>
    <!-- Page lines -->
    <g opacity="0.4">
      <path d="M3 7 L11 7 M3 10 L11 10 M3 13 L11 13" stroke="#1e3a8a" stroke-width="0.5"/>
      <path d="M17 7 L25 7 M17 10 L25 10 M17 13 L25 13" stroke="#1e3a8a" stroke-width="0.5"/>
    </g>
  </g>
  
  <!-- Circuit Pattern -->
  <g transform="translate(6, 6)" opacity="0.6">
    <!-- Circuit nodes -->
    <circle cx="3" cy="3" r="2" fill="none" stroke="url(#circuitGradientIcon)" stroke-width="1"/>
    <circle cx="49" cy="3" r="2" fill="none" stroke="url(#circuitGradientIcon)" stroke-width="1"/>
    <circle cx="3" cy="49" r="2" fill="none" stroke="url(#circuitGradientIcon)" stroke-width="1"/>
    <circle cx="49" cy="49" r="2" fill="none" stroke="url(#circuitGradientIcon)" stroke-width="1"/>
    <!-- Circuit connections -->
    <path d="M5 3 L20 3 L20 10 M32 10 L47 10 L47 3" stroke="url(#circuitGradientIcon)" stroke-width="0.8" fill="none"/>
    <path d="M3 5 L3 20 L10 20 M10 32 L10 47 L3 47" stroke="url(#circuitGradientIcon)" stroke-width="0.8" fill="none"/>
    <path d="M47 5 L47 20 L42 20 M42 32 L42 47 L49 47" stroke="url(#circuitGradientIcon)" stroke-width="0.8" fill="none"/>
  </g>
  
  <!-- Gears -->
  <g transform="translate(42, 42)" opacity="0.5">
    <g transform="scale(0.5)">
      <path d="M20 2 L24 6 L28 2 L32 6 L28 10 L32 14 L28 18 L24 14 L20 18 L16 14 L20 10 L16 6 Z" 
            fill="none" stroke="white" stroke-width="2.5"/>
      <circle cx="24" cy="10" r="5" fill="none" stroke="white" stroke-width="2"/>
    </g>
  </g>
  
  <!-- Small gear -->
  <g transform="translate(48, 8)" opacity="0.4">
    <g transform="scale(0.4)">
      <path d="M10 1 L12 3 L14 1 L16 3 L14 5 L16 7 L14 9 L12 7 L10 9 L8 7 L10 5 L8 3 Z" 
            fill="none" stroke="white" stroke-width="2"/>
      <circle cx="12" cy="5" r="3" fill="none" stroke="white" stroke-width="1.5"/>
    </g>
  </g>
</svg>