<?xml version="1.0" encoding="UTF-8"?>
<svg width="40" height="40" viewBox="0 0 40 40" fill="none" xmlns="http://www.w3.org/2000/svg">
  <defs>
    <!-- Main gradient from navy blue to orange -->
    <linearGradient id="mainGradient" x1="0%" y1="0%" x2="100%" y2="100%">
      <stop offset="0%" style="stop-color:#1e3a8a;stop-opacity:1" />
      <stop offset="100%" style="stop-color:#ea580c;stop-opacity:1" />
    </linearGradient>
    <!-- Circuit gradient -->
    <linearGradient id="circuitGradient" x1="0%" y1="0%" x2="100%" y2="0%">
      <stop offset="0%" style="stop-color:#60a5fa;stop-opacity:1" />
      <stop offset="100%" style="stop-color:#34d399;stop-opacity:1" />
    </linearGradient>
  </defs>
  
  <!-- Background Circle -->
  <circle cx="20" cy="20" r="20" fill="url(#mainGradient)"/>
  
  <!-- Bridge Structure -->
  <g transform="translate(6, 18)">
    <!-- Bridge Base -->
    <path d="M0 8 L28 8 L28 10 L0 10 Z" fill="white" opacity="0.9"/>
    <!-- Bridge Towers -->
    <rect x="8" y="2" width="2" height="8" fill="white" opacity="0.8"/>
    <rect x="18" y="2" width="2" height="8" fill="white" opacity="0.8"/>
    <!-- Bridge Cables -->
    <path d="M9 2 Q14 6 19 2" stroke="white" stroke-width="0.8" fill="none" opacity="0.7"/>
    <path d="M9 4 Q14 7 19 4" stroke="white" stroke-width="0.6" fill="none" opacity="0.6"/>
    <!-- Support Cables -->
    <path d="M9 2 L6 8 M9 2 L12 8 M19 2 L16 8 M19 2 L22 8" stroke="white" stroke-width="0.4" opacity="0.5"/>
  </g>
  
  <!-- Open Book -->
  <g transform="translate(12, 8)">
    <!-- Left page -->
    <path d="M0 2 C0 1.5 0.5 1 1 1 L7 1 C7.5 1 8 1.5 8 2 L8 12 C8 12.5 7.5 13 7 13 L1 13 C0.5 13 0 12.5 0 12 Z" 
          fill="white" opacity="0.9"/>
    <!-- Right page -->
    <path d="M8 2 C8 1.5 8.5 1 9 1 L15 1 C15.5 1 16 1.5 16 2 L16 12 C16 12.5 15.5 13 15 13 L9 13 C8.5 13 8 12.5 8 12 Z" 
          fill="white" opacity="0.7"/>
    <!-- Book spine/binding -->
    <path d="M8 1 L8 13" stroke="white" stroke-width="0.5" opacity="0.6"/>
    <!-- Page lines -->
    <g opacity="0.4">
      <path d="M2 4 L6 4 M2 6 L6 6 M2 8 L6 8" stroke="#1e3a8a" stroke-width="0.3"/>
      <path d="M10 4 L14 4 M10 6 L14 6 M10 8 L14 8" stroke="#1e3a8a" stroke-width="0.3"/>
    </g>
  </g>
  
  <!-- Circuit Pattern -->
  <g transform="translate(4, 4)" opacity="0.6">
    <!-- Circuit nodes -->
    <circle cx="2" cy="2" r="1" fill="none" stroke="url(#circuitGradient)" stroke-width="0.5"/>
    <circle cx="30" cy="2" r="1" fill="none" stroke="url(#circuitGradient)" stroke-width="0.5"/>
    <circle cx="2" cy="30" r="1" fill="none" stroke="url(#circuitGradient)" stroke-width="0.5"/>
    <circle cx="30" cy="30" r="1" fill="none" stroke="url(#circuitGradient)" stroke-width="0.5"/>
    <!-- Circuit connections -->
    <path d="M3 2 L12 2 L12 6 M20 6 L29 6 L29 2" stroke="url(#circuitGradient)" stroke-width="0.4" fill="none"/>
    <path d="M2 3 L2 12 L6 12 M6 20 L6 29 L2 29" stroke="url(#circuitGradient)" stroke-width="0.4" fill="none"/>
    <path d="M29 3 L29 12 L26 12 M26 20 L26 29 L30 29" stroke="url(#circuitGradient)" stroke-width="0.4" fill="none"/>
  </g>
  
  <!-- Gears -->
  <g transform="translate(26, 26)" opacity="0.5">
    <g transform="scale(0.3)">
      <path d="M20 2 L24 6 L28 2 L32 6 L28 10 L32 14 L28 18 L24 14 L20 18 L16 14 L20 10 L16 6 Z" 
            fill="none" stroke="white" stroke-width="2"/>
      <circle cx="24" cy="10" r="4" fill="none" stroke="white" stroke-width="1.5"/>
    </g>
  </g>
  
  <!-- Small gear -->
  <g transform="translate(30, 6)" opacity="0.4">
    <g transform="scale(0.2)">
      <path d="M10 1 L12 3 L14 1 L16 3 L14 5 L16 7 L14 9 L12 7 L10 9 L8 7 L10 5 L8 3 Z" 
            fill="none" stroke="white" stroke-width="1.5"/>
      <circle cx="12" cy="5" r="2" fill="none" stroke="white" stroke-width="1"/>
    </g>
  </g>
</svg>
