<?xml version="1.0" encoding="UTF-8"?>
<svg width="192" height="192" viewBox="0 0 192 192" fill="none" xmlns="http://www.w3.org/2000/svg">
  <defs>
    <!-- Main gradient from navy blue to orange -->
    <linearGradient id="mainGradientAndroid" x1="0%" y1="0%" x2="100%" y2="100%">
      <stop offset="0%" style="stop-color:#1e3a8a;stop-opacity:1" />
      <stop offset="100%" style="stop-color:#ea580c;stop-opacity:1" />
    </linearGradient>
    <!-- Circuit gradient -->
    <linearGradient id="circuitGradientAndroid" x1="0%" y1="0%" x2="100%" y2="0%">
      <stop offset="0%" style="stop-color:#60a5fa;stop-opacity:1" />
      <stop offset="100%" style="stop-color:#34d399;stop-opacity:1" />
    </linearGradient>
  </defs>
  
  <!-- Background Circle -->
  <circle cx="96" cy="96" r="96" fill="url(#mainGradientAndroid)"/>
  
  <!-- Bridge Structure -->
  <g transform="translate(24, 134)">
    <!-- Bridge Base -->
    <path d="M0 42 L144 42 L144 54 L0 54 Z" fill="white" opacity="0.9"/>
    <!-- Bridge Towers -->
    <rect x="42" y="12" width="12" height="42" fill="white" opacity="0.8"/>
    <rect x="90" y="12" width="12" height="42" fill="white" opacity="0.8"/>
    <!-- Bridge Cables -->
    <path d="M48 12 Q72 36 96 12" stroke="white" stroke-width="5" fill="none" opacity="0.7"/>
    <path d="M48 21 Q72 42 96 21" stroke="white" stroke-width="4" fill="none" opacity="0.6"/>
    <!-- Support Cables -->
    <path d="M48 12 L24 54 M48 12 L60 54 M96 12 L84 54 M96 12 L120 54" stroke="white" stroke-width="2.5" opacity="0.5"/>
  </g>
  
  <!-- Open Book -->
  <g transform="translate(48, 36)">
    <!-- Left page -->
    <path d="M0 12 C0 6 6 0 12 0 L42 0 C48 0 54 6 54 12 L54 66 C54 72 48 78 42 78 L12 78 C6 78 0 72 0 66 Z" 
          fill="white" opacity="0.9"/>
    <!-- Right page -->
    <path d="M42 12 C42 6 48 0 54 0 L84 0 C90 0 96 6 96 12 L96 66 C96 72 90 78 84 78 L54 78 C48 78 42 72 42 66 Z" 
          fill="white" opacity="0.7"/>
    <!-- Book spine/binding -->
    <path d="M48 0 L48 78" stroke="white" stroke-width="3" opacity="0.6"/>
    <!-- Page lines -->
    <g opacity="0.4">
      <path d="M12 24 L36 24 M12 33 L36 33 M12 42 L36 42 M12 51 L36 51" stroke="#1e3a8a" stroke-width="1.5"/>
      <path d="M60 24 L84 24 M60 33 L84 33 M60 42 L84 42 M60 51 L84 51" stroke="#1e3a8a" stroke-width="1.5"/>
    </g>
  </g>
  
  <!-- Circuit Pattern -->
  <g transform="translate(24, 24)" opacity="0.6">
    <!-- Circuit nodes -->
    <circle cx="12" cy="12" r="6" fill="none" stroke="url(#circuitGradientAndroid)" stroke-width="3"/>
    <circle cx="132" cy="12" r="6" fill="none" stroke="url(#circuitGradientAndroid)" stroke-width="3"/>
    <circle cx="12" cy="132" r="6" fill="none" stroke="url(#circuitGradientAndroid)" stroke-width="3"/>
    <circle cx="132" cy="132" r="6" fill="none" stroke="url(#circuitGradientAndroid)" stroke-width="3"/>
    <!-- Circuit connections -->
    <path d="M18 12 L60 12 L60 30 M84 30 L126 30 L126 12" stroke="url(#circuitGradientAndroid)" stroke-width="2.5" fill="none"/>
    <path d="M12 18 L12 60 L30 60 M30 84 L30 126 L12 126" stroke="url(#circuitGradientAndroid)" stroke-width="2.5" fill="none"/>
    <path d="M126 18 L126 60 L114 60 M114 84 L114 126 L132 126" stroke="url(#circuitGradientAndroid)" stroke-width="2.5" fill="none"/>
  </g>
  
  <!-- Gears -->
  <g transform="translate(132, 132)" opacity="0.5">
    <g transform="scale(1.4)">
      <path d="M20 2 L24 6 L28 2 L32 6 L28 10 L32 14 L28 18 L24 14 L20 18 L16 14 L20 10 L16 6 Z" 
            fill="none" stroke="white" stroke-width="3"/>
      <circle cx="24" cy="10" r="7" fill="none" stroke="white" stroke-width="2"/>
    </g>
  </g>
  
  <!-- Small gear -->
  <g transform="translate(150, 30)" opacity="0.4">
    <g transform="scale(1)">
      <path d="M10 1 L12 3 L14 1 L16 3 L14 5 L16 7 L14 9 L12 7 L10 9 L8 7 L10 5 L8 3 Z" 
            fill="none" stroke="white" stroke-width="2"/>
      <circle cx="12" cy="5" r="3" fill="none" stroke="white" stroke-width="1.5"/>
    </g>
  </g>
</svg>