<?xml version="1.0" encoding="UTF-8"?>
<svg width="32" height="32" viewBox="0 0 32 32" fill="none" xmlns="http://www.w3.org/2000/svg">
  <defs>
    <linearGradient id="brandGradientFav" x1="0%" y1="0%" x2="100%" y2="100%">
      <stop offset="0%" style="stop-color:#1e3a8a;stop-opacity:1" />
      <stop offset="50%" style="stop-color:#3b82f6;stop-opacity:1" />
      <stop offset="100%" style="stop-color:#06b6d4;stop-opacity:1" />
    </linearGradient>
    <linearGradient id="accentGradientFav" x1="0%" y1="0%" x2="100%" y2="0%">
      <stop offset="0%" style="stop-color:#f59e0b;stop-opacity:1" />
      <stop offset="100%" style="stop-color:#ea580c;stop-opacity:1" />
    </linearGradient>
  </defs>
  
  <!-- Main circular background -->
  <circle cx="16" cy="16" r="15" fill="url(#brandGradientFav)" stroke="white" stroke-width="1"/>
  
  <!-- Educational book -->
  <g transform="translate(8, 10)">
    <path d="M2 3 C2 2.5 2.5 2 3 2 L13 2 C13.5 2 14 2.5 14 3 L14 11 C14 11.5 13.5 12 13 12 L3 12 C2.5 12 2 11.5 2 11 Z" 
          fill="white" opacity="0.95"/>
    <path d="M8 2 L8 12" stroke="white" stroke-width="0.8" opacity="0.9"/>
    <path d="M4 5 L7 5 M4 7 L7 7" stroke="#1e3a8a" stroke-width="0.5" opacity="0.7"/>
    <path d="M9 5 L12 5 M9 7 L12 7" stroke="#1e3a8a" stroke-width="0.5" opacity="0.7"/>
  </g>
  
  <!-- Graduation cap accent -->
  <g transform="translate(20, 4)">
    <path d="M4 4 L8 3 L4 2 L0 3 L4 4 Z" fill="url(#accentGradientFav)"/>
    <circle cx="6" cy="2.5" r="0.8" fill="url(#accentGradientFav)"/>
  </g>
  
  <!-- AI badge -->
  <g transform="translate(18, 20)">
    <circle cx="6" cy="6" r="4" fill="url(#accentGradientFav)" opacity="0.9"/>
    <text x="6" y="8" text-anchor="middle" font-family="Arial" font-size="6" font-weight="bold" fill="white">AI</text>
  </g>
</svg>
